<?xml version="1.0" standalone="no"?><!DOCTYPE svg PUBLIC "-//W3C//DTD SVG 1.1//EN" "http://www.w3.org/Graphics/SVG/1.1/DTD/svg11.dtd"><svg xmlns="http://www.w3.org/2000/svg" viewBox="0 0 650 400" version="1.1"><clipPath id="box"><rect x="0" y="0" width="650" height="400" style="fill:none;stroke:none;" /></clipPath><g clip-path="url(#box)"><rect x="0.00" y="0.00" width="650.00" height="400.00" style="fill:#FFFFFF;stroke:none;" /><path d="M365.40 0.00 L365.40 400.00 " style="fill:none;stroke:#000000;stroke-width:1;" /><path d="M358.90 411.31 L371.90 411.31 M358.90 362.48 L371.90 362.48 M358.90 313.66 L371.90 313.66 M358.90 264.83 L371.90 264.83 M358.90 216.00 L371.90 216.00 M358.90 167.17 L371.90 167.17 M358.90 118.34 L371.90 118.34 M358.90 69.52 L371.90 69.52 M358.90 20.69 L371.90 20.69 " style="fill:none;stroke:#000000;stroke-width:1;" /><path d="M0.00 216.00 L650.00 216.00 " style="fill:none;stroke:#000000;stroke-width:1;" /><path d="M-25.23 209.50 L-25.23 222.50 M23.60 209.50 L23.60 222.50 M72.43 209.50 L72.43 222.50 M121.26 209.50 L121.26 222.50 M170.09 209.50 L170.09 222.50 M218.92 209.50 L218.92 222.50 M267.74 209.50 L267.74 222.50 M316.57 209.50 L316.57 222.50 M365.40 209.50 L365.40 222.50 M414.23 209.50 L414.23 222.50 M463.06 209.50 L463.06 222.50 M511.88 209.50 L511.88 222.50 M560.71 209.50 L560.71 222.50 M609.54 209.50 L609.54 222.50 " style="fill:none;stroke:#000000;stroke-width:1;" /><path d="M-10.00 200.00 L-0.25 118.34 L0.75 118.34 L2.75 118.34 L4.75 118.34 L6.75 118.34 L8.75 118.34 L10.75 118.34 L12.75 118.34 L14.75 118.34 L16.75 118.34 L18.75 118.34 L20.75 118.34 L22.75 118.34 L24.75 118.34 L26.75 118.34 L28.75 118.34 L30.75 118.34 L32.75 118.34 L34.75 118.34 L36.75 118.34 L38.75 118.34 L40.75 118.34 L42.75 118.34 L44.75 118.34 L46.75 118.34 L48.75 118.34 L50.75 118.34 L52.75 118.34 L54.75 118.34 L56.75 118.34 L58.75 118.34 L60.75 118.34 L62.75 118.34 L64.75 118.34 L66.75 118.34 L68.75 118.34 L70.75 118.34 L72.75 118.34 L74.75 118.34 L76.75 118.34 L78.75 118.34 L80.75 118.34 L82.75 118.34 L84.75 118.34 L86.75 118.34 L88.75 118.34 L90.75 118.34 L92.75 118.34 L94.75 118.34 L96.75 118.34 L98.75 118.34 L100.75 118.34 L102.75 118.34 L104.75 118.34 L106.75 118.34 L108.75 118.34 L110.75 118.34 L112.75 118.34 L114.75 118.34 L116.75 118.34 L118.75 118.34 L120.75 118.34 L122.75 118.34 L124.75 118.34 L126.75 118.34 L128.75 118.34 L130.75 118.34 L132.75 118.34 L134.75 118.34 L136.75 118.34 L138.75 118.34 L140.75 118.34 L142.75 118.34 L144.75 118.34 L146.75 118.34 L148.75 118.34 L150.75 118.34 L152.75 118.34 L154.75 118.34 L156.75 118.34 L158.75 118.34 L160.75 118.34 L162.75 118.34 L164.75 118.34 L166.75 118.34 L168.75 118.34 L170.75 118.34 L172.75 118.34 L174.75 118.34 L176.75 118.34 L178.75 118.34 L180.75 118.34 L182.75 118.34 L184.75 118.34 L186.75 118.34 L188.75 118.34 L190.75 118.34 L192.75 118.34 L194.75 118.34 L196.75 118.34 L198.75 118.34 L200.75 118.34 L202.75 118.34 L204.75 118.34 L206.75 118.34 L208.75 118.34 L210.75 118.34 L212.75 118.34 L214.75 118.34 L216.75 118.34 L218.75 118.34 L220.75 118.34 L222.75 118.34 L224.75 118.34 L226.75 118.34 L228.75 118.34 L230.75 118.34 L232.75 118.34 L234.75 118.34 L236.75 118.34 L238.75 118.34 L240.75 118.34 L242.75 118.34 L244.75 118.34 L246.75 118.34 L248.75 118.34 L250.75 118.34 L252.75 118.34 L254.75 118.34 L256.75 118.34 L258.75 118.34 L260.75 118.34 L262.75 118.34 L264.75 118.34 L266.75 118.34 L268.75 118.34 L270.75 118.34 L272.75 118.34 L274.75 118.34 L276.75 118.34 L278.75 118.34 L280.75 118.34 L282.75 118.34 L284.75 118.34 L286.75 118.34 L288.75 118.34 L290.75 118.34 L292.75 118.34 L294.75 118.34 L296.75 118.34 L298.75 118.34 L300.75 118.34 L302.75 118.34 L304.75 118.34 L306.75 118.34 L308.75 118.34 L310.75 118.34 L312.75 118.34 L314.75 118.34 L316.75 118.34 L318.75 118.34 L320.75 118.34 L322.75 118.34 L324.75 118.34 L326.75 118.34 L328.75 118.34 L330.75 118.34 L332.75 118.34 L334.75 118.34 L336.75 118.34 L338.75 118.34 L340.75 118.34 L342.75 118.34 L344.75 118.34 L346.75 118.34 L348.75 118.34 L350.75 118.34 L352.75 118.34 L354.75 118.34 L356.75 118.34 L358.75 118.34 L360.75 118.34 L362.75 118.34 L364.75 118.34 L366.75 118.34 L368.75 118.34 L370.75 118.34 L372.75 118.34 L374.75 118.34 L376.75 118.34 L378.75 118.34 L380.75 118.34 L382.75 118.34 L384.75 118.34 L386.75 118.34 L388.75 118.34 L390.75 118.34 L392.75 118.34 L394.75 118.34 L396.75 118.34 L398.75 118.34 L400.75 118.34 L402.75 118.34 L404.75 118.34 L406.75 118.34 L408.75 118.34 L410.75 118.34 L412.75 118.34 L414.75 118.34 L416.75 118.34 L418.75 118.34 L420.75 118.34 L422.75 118.34 L424.75 118.34 L426.75 118.34 L428.75 118.34 L430.75 118.34 L432.75 118.34 L434.75 118.34 L436.75 118.34 L438.75 118.34 L440.75 118.34 L442.75 118.34 L444.75 118.34 L446.75 118.34 L448.75 118.34 L450.75 118.34 L452.75 118.34 L454.75 118.34 L456.75 118.34 L458.75 118.34 L460.75 118.34 L462.75 118.34 L464.75 118.34 L466.75 118.34 L468.75 118.34 L470.75 118.34 L472.75 118.34 L474.75 118.34 L476.75 118.34 L478.75 118.34 L480.75 118.34 L482.75 118.34 L484.75 118.34 L486.75 118.34 L488.75 118.34 L490.75 118.34 L492.75 118.34 L494.75 118.34 L496.75 118.34 L498.75 118.34 L500.75 118.34 L502.75 118.34 L504.75 118.34 L506.75 118.34 L508.75 118.34 L510.75 118.34 L512.75 118.34 L514.75 118.34 L516.75 118.34 L518.75 118.34 L520.75 118.34 L522.75 118.34 L524.75 118.34 L526.75 118.34 L528.75 118.34 L530.75 118.34 L532.75 118.34 L534.75 118.34 L536.75 118.34 L538.75 118.34 L540.75 118.34 L542.75 118.34 L544.75 118.34 L546.75 118.34 L548.75 118.34 L550.75 118.34 L552.75 118.34 L554.75 118.34 L556.75 118.34 L558.75 118.34 L560.75 118.34 L562.75 118.34 L564.75 118.34 L566.75 118.34 L568.75 118.34 L570.75 118.34 L572.75 118.34 L574.75 118.34 L576.75 118.34 L578.75 118.34 L580.75 118.34 L582.75 118.34 L584.75 118.34 L586.75 118.34 L588.75 118.34 L590.75 118.34 L592.75 118.34 L594.75 118.34 L596.75 118.34 L598.75 118.34 L600.75 118.34 L602.75 118.34 L604.75 118.34 L606.75 118.34 L608.75 118.34 L610.75 118.34 L612.75 118.34 L614.75 118.34 L616.75 118.34 L618.75 118.34 L620.75 118.34 L622.75 118.34 L624.75 118.34 L626.75 118.34 L628.75 118.34 L630.75 118.34 L632.75 118.34 L634.75 118.34 L636.75 118.34 L638.75 118.34 L640.75 118.34 L642.75 118.34 L644.75 118.34 L646.75 118.34 L648.75 118.34 " style="fill:none;stroke:#EF476F;stroke-width:1;" /><path d="M181.40 400.00 L181.40 400.00 L182.40 399.00 L183.40 398.00 L184.40 397.00 L185.40 396.00 L186.40 395.00 L187.40 394.00 L188.40 393.00 L189.40 392.00 L190.40 391.00 L191.40 390.00 L192.40 389.00 L193.40 388.00 L194.40 387.00 L195.40 386.00 L196.40 385.00 L197.40 384.00 L198.40 383.00 L199.40 382.00 L200.40 381.00 L201.40 380.00 L202.40 379.00 L203.40 378.00 L204.40 377.00 L205.40 376.00 L206.40 375.00 L207.40 374.00 L208.40 373.00 L209.40 372.00 L210.40 371.00 L211.40 370.00 L212.40 369.00 L213.40 368.00 L214.40 367.00 L215.40 366.00 L216.40 365.00 L217.40 364.00 L218.40 363.00 L219.40 362.00 L220.40 361.00 L221.40 360.00 L222.40 359.00 L223.40 358.00 L224.40 357.00 L225.40 356.00 L226.40 355.00 L227.40 354.00 L228.40 353.00 L229.40 352.00 L230.40 351.00 L231.40 350.00 L232.40 349.00 L233.40 348.00 L234.40 347.00 L235.40 346.00 L236.40 345.00 L237.40 344.00 L238.40 343.00 L239.40 342.00 L240.40 341.00 L241.40 340.00 L242.40 339.00 L243.40 338.00 L244.40 337.00 L245.40 336.00 L246.40 335.00 L247.40 334.00 L248.40 333.00 L249.40 332.00 L250.40 331.00 L251.40 330.00 L252.40 329.00 L253.40 328.00 L254.40 327.00 L255.40 326.00 L256.40 325.00 L257.40 324.00 L258.40 323.00 L259.40 322.00 L260.40 321.00 L261.40 320.00 L262.40 319.00 L263.40 318.00 L264.40 317.00 L265.40 316.00 L266.40 315.00 L267.40 314.00 L268.40 313.00 L269.40 312.00 L270.40 311.00 L271.40 310.00 L272.40 309.00 L273.40 308.00 L274.40 307.00 L275.40 306.00 L276.40 305.00 L277.40 304.00 L278.40 303.00 L279.40 302.00 L280.40 301.00 L281.40 300.00 L282.40 299.00 L283.40 298.00 L284.40 297.00 L285.40 296.00 L286.40 295.00 L287.40 294.00 L288.40 293.00 L289.40 292.00 L290.40 291.00 L291.40 290.00 L292.40 289.00 L293.40 288.00 L294.40 287.00 L295.40 286.00 L296.40 285.00 L297.40 284.00 L298.40 283.00 L299.40 282.00 L300.40 281.00 L301.40 280.00 L302.40 279.00 L303.40 278.00 L304.40 277.00 L305.40 276.00 L306.40 275.00 L307.40 274.00 L308.40 273.00 L309.40 272.00 L310.40 271.00 L311.40 270.00 L312.40 269.00 L313.40 268.00 L314.40 267.00 L315.40 266.00 L316.40 265.00 L317.40 264.00 L318.40 263.00 L319.40 262.00 L320.40 261.00 L321.40 260.00 L322.40 259.00 L323.40 258.00 L324.40 257.00 L325.40 256.00 L326.40 255.00 L327.40 254.00 L328.40 253.00 L329.40 252.00 L330.40 251.00 L331.40 250.00 L332.40 249.00 L333.40 248.00 L334.40 247.00 L335.40 246.00 L336.40 245.00 L337.40 244.00 L338.40 243.00 L339.40 242.00 L340.40 241.00 L341.40 240.00 L342.40 239.00 L343.40 238.00 L344.40 237.00 L345.40 236.00 L346.40 235.00 L347.40 234.00 L348.40 233.00 L349.40 232.00 L350.40 231.00 L351.40 230.00 L352.40 229.00 L353.40 228.00 L354.40 227.00 L355.40 226.00 L356.40 225.00 L357.40 224.00 L358.40 223.00 L359.40 222.00 L360.40 221.00 L361.40 220.00 L362.40 219.00 L363.40 218.00 L364.40 217.00 L365.40 216.00 L366.40 215.00 L367.40 214.00 L368.40 213.00 L369.40 212.00 L370.40 211.00 L371.40 210.00 L372.40 209.00 L373.40 208.00 L374.40 207.00 L375.40 206.00 L376.40 205.00 L377.40 204.00 L378.40 203.00 L379.40 202.00 L380.40 201.00 L381.40 200.00 L382.40 199.00 L383.40 198.00 L384.40 197.00 L385.40 196.00 L386.40 195.00 L387.40 194.00 L388.40 193.00 L389.40 192.00 L390.40 191.00 L391.40 190.00 L392.40 189.00 L393.40 188.00 L394.40 187.00 L395.40 186.00 L396.40 185.00 L397.40 184.00 L398.40 183.00 L399.40 182.00 L400.40 181.00 L401.40 180.00 L402.40 179.00 L403.40 178.00 L404.40 177.00 L405.40 176.00 L406.40 175.00 L407.40 174.00 L408.40 173.00 L409.40 172.00 L410.40 171.00 L411.40 170.00 L412.40 169.00 L413.40 168.00 L414.40 167.00 L415.40 166.00 L416.40 165.00 L417.40 164.00 L418.40 163.00 L419.40 162.00 L420.40 161.00 L421.40 160.00 L422.40 159.00 L423.40 158.00 L424.40 157.00 L425.40 156.00 L426.40 155.00 L427.40 154.00 L428.40 153.00 L429.40 152.00 L430.40 151.00 L431.40 150.00 L432.40 149.00 L433.40 148.00 L434.40 147.00 L435.40 146.00 L436.40 145.00 L437.40 144.00 L438.40 143.00 L439.40 142.00 L440.40 141.00 L441.40 140.00 L442.40 139.00 L443.40 138.00 L444.40 137.00 L445.40 136.00 L446.40 135.00 L447.40 134.00 L448.40 133.00 L449.40 132.00 L450.40 131.00 L451.40 130.00 L452.40 129.00 L453.40 128.00 L454.40 127.00 L455.40 126.00 L456.40 125.00 L457.40 124.00 L458.40 123.00 L459.40 122.00 L460.40 121.00 L461.40 120.00 L462.40 119.00 L463.40 118.00 L464.40 117.00 L465.40 116.00 L466.40 115.00 L467.40 114.00 L468.40 113.00 L469.40 112.00 L470.40 111.00 L471.40 110.00 L472.40 109.00 L473.40 108.00 L474.40 107.00 L475.40 106.00 L476.40 105.00 L477.40 104.00 L478.40 103.00 L479.40 102.00 L480.40 101.00 L481.40 100.00 L482.40 99.00 L483.40 98.00 L484.40 97.00 L485.40 96.00 L486.40 95.00 L487.40 94.00 L488.40 93.00 L489.40 92.00 L490.40 91.00 L491.40 90.00 L492.40 89.00 L493.40 88.00 L494.40 87.00 L495.40 86.00 L496.40 85.00 L497.40 84.00 L498.40 83.00 L499.40 82.00 L500.40 81.00 L501.40 80.00 L502.40 79.00 L503.40 78.00 L504.40 77.00 L505.40 76.00 L506.40 75.00 L507.40 74.00 L508.40 73.00 L509.40 72.00 L510.40 71.00 L511.40 70.00 L512.40 69.00 L513.40 68.00 L514.40 67.00 L515.40 66.00 L516.40 65.00 L517.40 64.00 L518.40 63.00 L519.40 62.00 L520.40 61.00 L521.40 60.00 L522.40 59.00 L523.40 58.00 L524.40 57.00 L525.40 56.00 L526.40 55.00 L527.40 54.00 L528.40 53.00 L529.40 52.00 L530.40 51.00 L531.40 50.00 L532.40 49.00 L533.40 48.00 L534.40 47.00 L535.40 46.00 L536.40 45.00 L537.40 44.00 L538.40 43.00 L539.40 42.00 L540.40 41.00 L541.40 40.00 L542.40 39.00 L543.40 38.00 L544.40 37.00 L545.40 36.00 L546.40 35.00 L547.40 34.00 L548.40 33.00 L549.40 32.00 L550.40 31.00 L551.40 30.00 L552.40 29.00 L553.40 28.00 L554.40 27.00 L555.40 26.00 L556.40 25.00 L557.40 24.00 L558.40 23.00 L559.40 22.00 L560.40 21.00 L561.40 20.00 L562.40 19.00 L563.40 18.00 L564.40 17.00 L565.40 16.00 L566.40 15.00 L567.40 14.00 L568.40 13.00 L569.40 12.00 L570.40 11.00 L571.40 10.00 L572.40 9.00 L573.40 8.00 L574.40 7.00 L575.40 6.00 L576.40 5.00 L577.40 4.00 L578.40 3.00 L579.40 2.00 L580.40 1.00 L581.40 -0.00 " style="fill:none;stroke:#118AB2;stroke-width:1;" /><path d="M366.67 400.00 L366.68 399.97 L366.71 398.98 L366.74 398.00 L366.77 397.03 L366.80 396.05 L366.83 395.07 L366.87 394.10 L366.90 393.12 L366.93 392.14 L366.97 391.16 L367.01 390.19 L367.04 389.21 L367.08 388.23 L367.12 387.26 L367.16 386.28 L367.20 385.30 L367.25 384.32 L367.29 383.35 L367.33 382.37 L367.38 381.39 L367.42 380.41 L367.47 379.44 L367.52 378.46 L367.57 377.48 L367.62 376.51 L367.67 375.53 L367.72 374.55 L367.78 373.57 L367.83 372.60 L367.89 371.62 L367.95 370.64 L368.01 369.67 L368.07 368.69 L368.13 367.71 L368.19 366.73 L368.26 365.76 L368.33 364.78 L368.39 363.80 L368.46 362.82 L368.53 361.85 L368.61 360.87 L368.68 359.89 L368.76 358.92 L368.84 357.94 L368.92 356.96 L369.00 355.98 L369.08 355.01 L369.17 354.03 L369.26 353.05 L369.35 352.08 L369.44 351.10 L369.53 350.12 L369.63 349.14 L369.73 348.17 L369.83 347.19 L369.93 346.21 L370.04 345.23 L370.15 344.26 L370.26 343.28 L370.37 342.30 L370.49 341.33 L370.60 340.35 L370.73 339.37 L370.85 338.39 L370.98 337.42 L371.11 336.44 L371.24 335.46 L371.38 334.49 L371.52 333.51 L371.66 332.53 L371.80 331.55 L371.95 330.58 L372.11 329.60 L372.26 328.62 L372.42 327.64 L372.59 326.67 L372.75 325.69 L372.92 324.71 L373.10 323.74 L373.28 322.76 L373.46 321.78 L373.65 320.80 L373.84 319.83 L374.04 318.85 L374.24 317.87 L374.45 316.90 L374.66 315.92 L374.87 314.94 L375.10 313.96 L375.32 312.99 L375.55 312.01 L375.79 311.03 L376.03 310.05 L376.28 309.08 L376.53 308.10 L376.79 307.12 L377.06 306.15 L377.33 305.17 L377.61 304.19 L377.89 303.21 L378.18 302.24 L378.48 301.26 L378.79 300.28 L379.10 299.31 L379.42 298.33 L379.74 297.35 L380.08 296.37 L380.42 295.40 L380.77 294.42 L381.13 293.44 L381.50 292.46 L381.87 291.49 L382.25 290.51 L382.65 289.53 L383.05 288.56 L383.46 287.58 L383.88 286.60 L384.31 285.62 L384.75 284.65 L385.20 283.67 L385.67 282.69 L386.14 281.72 L386.62 280.74 L387.12 279.76 L387.62 278.78 L388.14 277.81 L388.67 276.83 L389.21 275.85 L389.77 274.87 L390.34 273.90 L390.92 272.92 L391.51 271.94 L392.12 270.97 L392.74 269.99 L393.38 269.01 L394.03 268.03 L394.70 267.06 L395.38 266.08 L396.08 265.10 L396.80 264.13 L397.53 263.15 L398.28 262.17 L399.04 261.19 L399.83 260.22 L400.63 259.24 L401.45 258.26 L402.29 257.28 L403.15 256.31 L404.03 255.33 L404.93 254.35 L405.86 253.38 L406.80 252.40 L407.76 251.42 L408.75 250.44 L409.76 249.47 L410.79 248.49 L411.85 247.51 L412.94 246.54 L414.04 245.56 L415.18 244.58 L416.34 243.60 L417.53 242.63 L418.74 241.65 L419.98 240.67 L421.26 239.69 L422.56 238.72 L423.89 237.74 L425.25 236.76 L426.65 235.79 L428.08 234.81 L429.54 233.83 L431.03 232.85 L432.56 231.88 L434.13 230.90 L435.73 229.92 L437.37 228.95 L439.05 227.97 L440.76 226.99 L442.52 226.01 L444.32 225.04 L446.16 224.06 L448.04 223.08 L449.96 222.10 L451.94 221.13 L453.94 220.16 L455.94 219.21 L457.94 218.28 L459.94 217.38 L461.94 216.49 L463.94 215.62 L465.94 214.77 L467.94 213.93 L469.94 213.11 L471.94 212.31 L473.94 211.52 L475.94 210.75 L477.94 209.99 L479.94 209.24 L481.94 208.50 L483.94 207.78 L485.94 207.07 L487.94 206.37 L489.94 205.69 L491.94 205.01 L493.94 204.35 L495.94 203.69 L497.94 203.05 L499.94 202.41 L501.94 201.79 L503.94 201.17 L505.94 200.56 L507.94 199.96 L509.94 199.37 L511.94 198.79 L513.94 198.21 L515.94 197.65 L517.94 197.09 L519.94 196.53 L521.94 195.99 L523.94 195.45 L525.94 194.92 L527.94 194.39 L529.94 193.87 L531.94 193.36 L533.94 192.86 L535.94 192.36 L537.94 191.86 L539.94 191.37 L541.94 190.89 L543.94 190.41 L545.94 189.94 L547.94 189.47 L549.94 189.01 L551.94 188.55 L553.94 188.10 L555.94 187.65 L557.94 187.21 L559.94 186.77 L561.94 186.34 L563.94 185.91 L565.94 185.48 L567.94 185.06 L569.94 184.65 L571.94 184.23 L573.94 183.82 L575.94 183.42 L577.94 183.02 L579.94 182.62 L581.94 182.23 L583.94 181.84 L585.94 181.45 L587.94 181.07 L589.94 180.69 L591.94 180.31 L593.94 179.94 L595.94 179.57 L597.94 179.20 L599.94 178.84 L601.94 178.48 L603.94 178.12 L605.94 177.77 L607.94 177.42 L609.94 177.07 L611.94 176.72 L613.94 176.38 L615.94 176.04 L617.94 175.70 L619.94 175.37 L621.94 175.04 L623.94 174.71 L625.94 174.38 L627.94 174.06 L629.94 173.74 L631.94 173.42 L633.94 173.10 L635.94 172.78 L637.94 172.47 L639.94 172.16 L641.94 171.85 L643.94 171.55 L645.94 171.25 L647.94 170.94 L649.94 170.64 " style="fill:none;stroke:#FFD166;stroke-width:1;" /><path d="M365.40 216.00 L365.40 216.02 L365.65 216.64 L366.04 217.39 L366.56 218.23 L367.18 219.09 L367.90 219.97 L368.71 220.87 L369.62 221.76 L370.64 222.66 L371.78 223.56 L373.04 224.46 L374.45 225.35 L376.03 226.24 L377.80 227.12 L379.80 227.97 L381.80 228.71 L383.80 229.34 L385.80 229.87 L387.80 230.32 L389.80 230.70 L391.80 231.00 L393.80 231.23 L395.80 231.41 L397.80 231.52 L399.80 231.59 L401.80 231.60 L403.80 231.57 L405.80 231.49 L407.80 231.36 L409.80 231.20 L411.80 231.00 L413.80 230.75 L415.80 230.48 L417.80 230.17 L419.80 229.82 L421.80 229.45 L423.80 229.04 L425.80 228.60 L427.80 228.14 L429.80 227.64 L431.80 227.12 L433.80 226.58 L435.80 226.00 L437.80 225.41 L439.80 224.79 L441.80 224.14 L443.80 223.48 L445.80 222.79 L447.80 222.08 L449.80 221.35 L451.80 220.59 L453.80 219.82 L455.80 219.03 L457.80 218.22 L459.80 217.39 L461.80 216.54 L463.80 215.67 L465.80 214.79 L467.80 213.89 L469.80 212.97 L471.80 212.04 L473.80 211.09 L475.80 210.12 L477.80 209.13 L479.80 208.14 L481.80 207.12 L483.78 206.11 L485.72 205.09 L487.64 204.08 L489.53 203.07 L491.40 202.06 L493.25 201.04 L495.07 200.03 L496.87 199.02 L498.66 198.01 L500.42 197.00 L502.17 195.99 L503.90 194.98 L505.62 193.97 L507.32 192.96 L509.00 191.95 L510.67 190.95 L512.32 189.94 L513.96 188.93 L515.59 187.92 L517.21 186.91 L518.81 185.91 L520.40 184.90 L521.98 183.89 L523.55 182.89 L525.11 181.88 L526.66 180.87 L528.20 179.87 L529.73 178.86 L531.25 177.85 L532.76 176.85 L534.26 175.84 L535.75 174.84 L537.23 173.83 L538.71 172.83 L540.18 171.82 L541.64 170.81 L543.09 169.81 L544.53 168.80 L545.97 167.80 L547.40 166.79 L548.82 165.79 L550.24 164.78 L551.64 163.78 L553.05 162.78 L554.44 161.77 L555.83 160.77 L557.22 159.76 L558.59 158.76 L559.97 157.75 L561.33 156.75 L562.69 155.75 L564.05 154.74 L565.40 153.74 L566.74 152.73 L568.08 151.73 L569.41 150.73 L570.74 149.72 L572.06 148.72 L573.38 147.71 L574.70 146.71 L576.00 145.71 L577.31 144.70 L578.61 143.70 L579.90 142.70 L581.19 141.69 L582.48 140.69 L583.76 139.69 L585.04 138.68 L586.31 137.68 L587.58 136.68 L588.85 135.67 L590.11 134.67 L591.37 133.67 L592.62 132.66 L593.87 131.66 L595.12 130.66 L596.36 129.66 L597.60 128.65 L598.84 127.65 L600.07 126.65 L601.30 125.64 L602.52 124.64 L603.75 123.64 L604.96 122.64 L606.18 121.63 L607.39 120.63 L608.60 119.63 L609.81 118.63 L611.01 117.62 L612.21 116.62 L613.40 115.62 L614.60 114.62 L615.79 113.61 L616.98 112.61 L618.16 111.61 L619.34 110.61 L620.52 109.60 L621.70 108.60 L622.87 107.60 L624.04 106.60 L625.21 105.59 L626.37 104.59 L627.54 103.59 L628.70 102.59 L629.85 101.59 L631.01 100.58 L632.16 99.58 L633.31 98.58 L634.46 97.58 L635.60 96.57 L636.74 95.57 L637.88 94.57 L639.02 93.57 L640.16 92.57 L641.29 91.56 L642.42 90.56 L643.55 89.56 L644.67 88.56 L645.80 87.56 L646.92 86.55 L648.04 85.55 L649.16 84.55 " style="fill:none;stroke:#06D6A0;stroke-width:1;" /><path d="M220.16 -0.00 L220.16 0.00 L220.50 1.00 L220.84 2.00 L221.17 3.00 L221.51 3.99 L221.85 4.99 L222.19 5.99 L222.53 6.99 L222.87 7.98 L223.22 8.98 L223.56 9.98 L223.90 10.98 L224.25 11.98 L224.59 12.97 L224.94 13.97 L225.29 14.97 L225.63 15.97 L225.98 16.96 L226.33 17.96 L226.68 18.96 L227.03 19.96 L227.39 20.95 L227.74 21.95 L228.09 22.95 L228.45 23.95 L228.81 24.94 L229.16 25.94 L229.52 26.94 L229.88 27.93 L230.24 28.93 L230.60 29.93 L230.96 30.93 L231.32 31.92 L231.69 32.92 L232.05 33.92 L232.42 34.92 L232.79 35.91 L233.15 36.91 L233.52 37.91 L233.89 38.90 L234.26 39.90 L234.63 40.90 L235.01 41.90 L235.38 42.89 L235.76 43.89 L236.13 44.89 L236.51 45.88 L236.89 46.88 L237.27 47.88 L237.65 48.88 L238.03 49.87 L238.41 50.87 L238.80 51.87 L239.18 52.86 L239.57 53.86 L239.95 54.86 L240.34 55.85 L240.73 56.85 L241.12 57.85 L241.52 58.85 L241.91 59.84 L242.30 60.84 L242.70 61.84 L243.10 62.83 L243.50 63.83 L243.90 64.83 L244.30 65.82 L244.70 66.82 L245.10 67.82 L245.51 68.81 L245.92 69.81 L246.32 70.81 L246.73 71.80 L247.14 72.80 L247.56 73.80 L247.97 74.79 L248.38 75.79 L248.80 76.79 L249.22 77.78 L249.64 78.78 L250.06 79.77 L250.48 80.77 L250.91 81.77 L251.33 82.76 L251.76 83.76 L252.19 84.76 L252.62 85.75 L253.05 86.75 L253.48 87.74 L253.92 88.74 L254.36 89.74 L254.80 90.73 L255.24 91.73 L255.68 92.72 L256.12 93.72 L256.57 94.72 L257.02 95.71 L257.47 96.71 L257.92 97.70 L258.37 98.70 L258.83 99.70 L259.28 100.69 L259.74 101.69 L260.20 102.68 L260.67 103.68 L261.13 104.67 L261.60 105.67 L262.07 106.67 L262.54 107.66 L263.01 108.66 L263.49 109.65 L263.97 110.65 L264.45 111.64 L264.93 112.64 L265.42 113.63 L265.90 114.63 L266.39 115.62 L266.88 116.62 L267.38 117.61 L267.88 118.61 L268.38 119.60 L268.88 120.60 L269.38 121.59 L269.89 122.59 L270.40 123.58 L270.91 124.58 L271.43 125.57 L271.94 126.57 L272.47 127.56 L272.99 128.55 L273.52 129.55 L274.05 130.54 L274.58 131.54 L275.12 132.53 L275.65 133.53 L276.20 134.52 L276.74 135.51 L277.29 136.51 L277.84 137.50 L278.40 138.49 L278.96 139.49 L279.52 140.48 L280.09 141.47 L280.66 142.47 L281.23 143.46 L281.81 144.45 L282.39 145.45 L282.98 146.44 L283.57 147.43 L284.17 148.43 L284.76 149.42 L285.37 150.41 L285.98 151.40 L286.59 152.40 L287.21 153.39 L287.83 154.38 L288.45 155.37 L289.09 156.36 L289.72 157.36 L290.37 158.35 L291.01 159.34 L291.67 160.33 L292.33 161.32 L292.99 162.31 L293.66 163.30 L294.34 164.29 L295.02 165.28 L295.72 166.28 L296.41 167.27 L297.12 168.26 L297.83 169.24 L298.55 170.23 L299.27 171.22 L300.01 172.21 L300.75 173.20 L301.50 174.19 L302.26 175.18 L303.03 176.17 L303.81 177.15 L304.60 178.14 L305.39 179.13 L306.20 180.11 L307.02 181.10 L307.85 182.09 L308.69 183.07 L309.55 184.06 L310.42 185.04 L311.30 186.03 L312.19 187.01 L313.10 187.99 L314.03 188.98 L314.97 189.96 L315.93 190.94 L316.91 191.92 L317.90 192.90 L318.92 193.88 L319.96 194.86 L321.02 195.83 L322.11 196.81 L323.22 197.79 L324.37 198.76 L325.54 199.73 L326.75 200.70 L327.99 201.67 L329.28 202.64 L330.60 203.60 L331.98 204.56 L333.41 205.52 L334.91 206.48 L336.47 207.43 L338.11 208.37 L339.85 209.31 L341.70 210.25 L343.68 211.17 L345.68 212.02 L347.68 212.78 L349.68 213.47 L351.68 214.07 L353.68 214.59 L355.68 215.03 L357.68 215.39 L359.68 215.66 L361.68 215.86 L363.68 215.97 L365.68 216.00 L367.68 215.95 L369.68 215.81 L371.68 215.60 L373.68 215.30 L375.68 214.92 L377.68 214.46 L379.68 213.91 L381.68 213.29 L383.68 212.58 L385.68 211.79 L387.68 210.92 L389.68 209.96 L391.68 208.93 L393.61 207.85 L395.40 206.78 L397.08 205.72 L398.66 204.67 L400.17 203.62 L401.60 202.58 L402.98 201.54 L404.30 200.50 L405.58 199.47 L406.81 198.44 L408.01 197.41 L409.17 196.38 L410.30 195.35 L411.41 194.33 L412.48 193.30 L413.53 192.28 L414.55 191.26 L415.56 190.24 L416.54 189.22 L417.51 188.20 L418.45 187.18 L419.38 186.16 L420.29 185.15 L421.19 184.13 L422.07 183.11 L422.94 182.10 L423.79 181.08 L424.64 180.07 L425.47 179.05 L426.29 178.04 L427.09 177.03 L427.89 176.01 L428.68 175.00 L429.45 173.99 L430.22 172.98 L430.98 171.96 L431.73 170.95 L432.47 169.94 L433.20 168.93 L433.92 167.92 L434.64 166.91 L435.35 165.90 L436.05 164.89 L436.74 163.88 L437.43 162.87 L438.11 161.86 L438.79 160.85 L439.46 159.84 L440.12 158.83 L440.78 157.82 L441.43 156.81 L442.07 155.80 L442.71 154.80 L443.34 153.79 L443.97 152.78 L444.60 151.77 L445.22 150.76 L445.83 149.76 L446.44 148.75 L447.04 147.74 L447.65 146.73 L448.24 145.73 L448.83 144.72 L449.42 143.71 L450.00 142.71 L450.58 141.70 L451.16 140.69 L451.73 139.68 L452.30 138.68 L452.86 137.67 L453.42 136.67 L453.98 135.66 L454.53 134.65 L455.08 133.65 L455.63 132.64 L456.17 131.63 L456.71 130.63 L457.24 129.62 L457.78 128.62 L458.31 127.61 L458.83 126.61 L459.36 125.60 L459.88 124.59 L460.40 123.59 L460.91 122.58 L461.43 121.58 L461.94 120.57 L462.44 119.57 L462.95 118.56 L463.45 117.56 L463.95 116.55 L464.45 115.55 L464.94 114.54 L465.43 113.54 L465.92 112.53 L466.41 111.53 L466.89 110.52 L467.37 109.52 L467.85 108.51 L468.33 107.51 L468.81 106.50 L469.28 105.50 L469.75 104.49 L470.22 103.49 L470.69 102.48 L471.15 101.48 L471.62 100.48 L472.08 99.47 L472.53 98.47 L472.99 97.46 L473.45 96.46 L473.90 95.45 L474.35 94.45 L474.80 93.45 L475.25 92.44 L475.69 91.44 L476.14 90.43 L476.58 89.43 L477.02 88.43 L477.46 87.42 L477.89 86.42 L478.33 85.41 L478.76 84.41 L479.19 83.41 L479.62 82.40 L480.05 81.40 L480.48 80.40 L480.90 79.39 L481.33 78.39 L481.75 77.38 L482.17 76.38 L482.59 75.38 L483.00 74.37 L483.42 73.37 L483.83 72.37 L484.25 71.36 L484.66 70.36 L485.07 69.36 L485.48 68.35 L485.89 67.35 L486.29 66.35 L486.70 65.34 L487.10 64.34 L487.50 63.34 L487.90 62.33 L488.30 61.33 L488.70 60.33 L489.10 59.32 L489.49 58.32 L489.88 57.32 L490.28 56.31 L490.67 55.31 L491.06 54.31 L491.45 53.30 L491.84 52.30 L492.22 51.30 L492.61 50.29 L492.99 49.29 L493.38 48.29 L493.76 47.29 L494.14 46.28 L494.52 45.28 L494.90 44.28 L495.28 43.27 L495.65 42.27 L496.03 41.27 L496.40 40.26 L496.78 39.26 L497.15 38.26 L497.52 37.26 L497.89 36.25 L498.26 35.25 L498.63 34.25 L498.99 33.25 L499.36 32.24 L499.72 31.24 L500.09 30.24 L500.45 29.23 L500.81 28.23 L501.17 27.23 L501.53 26.23 L501.89 25.22 L502.25 24.22 L502.61 23.22 L502.97 22.22 L503.32 21.21 L503.68 20.21 L504.03 19.21 L504.38 18.21 L504.73 17.20 L505.08 16.20 L505.43 15.20 L505.78 14.20 L506.13 13.19 L506.48 12.19 L506.83 11.19 L507.17 10.19 L507.52 9.18 L507.86 8.18 L508.20 7.18 L508.55 6.18 L508.89 5.17 L509.23 4.17 L509.57 3.17 L509.91 2.17 L510.24 1.16 L510.58 0.16 L510.92 -0.84 " style="fill:none;stroke:#FA8334;stroke-width:1;" /><path d="M-10.00 200.00 L-0.25 208.71 L0.75 208.66 L2.75 208.56 L4.75 208.45 L6.75 208.34 L8.75 208.23 L10.75 208.12 L12.75 208.01 L14.75 207.89 L16.75 207.78 L18.75 207.66 L20.75 207.54 L22.75 207.42 L24.75 207.30 L26.75 207.17 L28.75 207.05 L30.75 206.92 L32.75 206.79 L34.75 206.66 L36.75 206.52 L38.75 206.39 L40.75 206.25 L42.75 206.11 L44.75 205.97 L46.75 205.83 L48.75 205.68 L50.75 205.53 L52.75 205.38 L54.75 205.23 L56.75 205.08 L58.75 204.92 L60.75 204.76 L62.75 204.60 L64.75 204.44 L66.75 204.28 L68.75 204.11 L70.75 203.94 L72.75 203.77 L74.75 203.59 L76.75 203.41 L78.75 203.23 L80.75 203.05 L82.75 202.87 L84.75 202.68 L86.75 202.49 L88.75 202.29 L90.75 202.10 L92.75 201.90 L94.75 201.70 L96.75 201.49 L98.75 201.29 L100.75 201.08 L102.75 200.86 L104.75 200.65 L106.75 200.43 L108.75 200.20 L110.75 199.98 L112.75 199.75 L114.75 199.52 L116.75 199.28 L118.75 199.04 L120.75 198.80 L122.75 198.55 L124.75 198.30 L126.75 198.05 L128.75 197.79 L130.75 197.53 L132.75 197.27 L134.75 197.00 L136.75 196.73 L138.75 196.45 L140.75 196.18 L142.75 195.89 L144.75 195.60 L146.75 195.31 L148.75 195.02 L150.75 194.72 L152.75 194.41 L154.75 194.10 L156.75 193.79 L158.75 193.47 L160.75 193.15 L162.75 192.82 L164.75 192.49 L166.75 192.16 L168.75 191.82 L170.75 191.47 L172.75 191.12 L174.75 190.76 L176.75 190.40 L178.75 190.04 L180.75 189.67 L182.75 189.29 L184.75 188.91 L186.75 188.52 L188.75 188.13 L190.75 187.73 L192.75 187.33 L194.75 186.92 L196.75 186.50 L198.75 186.08 L200.75 185.65 L202.75 185.22 L204.75 184.78 L206.75 184.33 L208.75 183.88 L210.75 183.42 L212.75 182.95 L214.75 182.48 L216.75 182.00 L218.75 181.51 L220.75 181.02 L222.75 180.52 L224.75 180.01 L226.75 179.50 L228.75 178.98 L230.75 178.45 L232.75 177.91 L234.75 177.37 L236.75 176.81 L238.75 176.25 L240.75 175.69 L242.75 175.11 L244.75 174.52 L246.75 173.93 L248.75 173.33 L250.75 172.72 L252.75 172.10 L254.75 171.47 L256.75 170.84 L258.75 170.19 L260.75 169.54 L262.75 168.87 L264.75 168.20 L266.75 167.51 L268.75 166.82 L270.75 166.12 L272.75 165.41 L274.75 164.68 L276.75 163.95 L278.75 163.20 L280.75 162.45 L282.75 161.68 L284.75 160.91 L286.75 160.12 L288.75 159.32 L290.75 158.51 L292.75 157.69 L294.75 156.85 L296.75 156.01 L298.75 155.15 L300.75 154.28 L302.75 153.40 L304.75 152.50 L306.75 151.60 L308.75 150.68 L310.75 149.74 L312.75 148.79 L314.75 147.83 L316.75 146.86 L318.75 145.87 L320.75 144.87 L322.74 143.85 L324.71 142.84 L326.65 141.83 L328.56 140.81 L330.45 139.80 L332.31 138.78 L334.15 137.77 L335.96 136.76 L337.75 135.75 L339.52 134.73 L341.26 133.72 L342.98 132.71 L344.69 131.70 L346.37 130.68 L348.03 129.67 L349.67 128.66 L351.29 127.65 L352.90 126.64 L354.48 125.63 L356.05 124.61 L357.60 123.60 L359.13 122.59 L360.65 121.58 L362.15 120.57 L363.63 119.56 L365.10 118.55 L366.56 117.54 L367.99 116.53 L369.42 115.52 L370.83 114.51 L372.22 113.50 L373.60 112.49 L374.97 111.48 L376.33 110.47 L377.67 109.46 L379.00 108.45 L380.31 107.44 L381.62 106.43 L382.91 105.42 L384.19 104.41 L385.46 103.40 L386.71 102.39 L387.96 101.39 L389.19 100.38 L390.42 99.37 L391.63 98.36 L392.83 97.35 L394.03 96.34 L395.21 95.33 L396.38 94.33 L397.54 93.32 L398.70 92.31 L399.84 91.30 L400.97 90.29 L402.10 89.28 L403.22 88.28 L404.32 87.27 L405.42 86.26 L406.51 85.25 L407.59 84.25 L408.67 83.24 L409.73 82.23 L410.79 81.22 L411.84 80.21 L412.88 79.21 L413.91 78.20 L414.94 77.19 L415.96 76.19 L416.97 75.18 L417.98 74.17 L418.97 73.16 L419.96 72.16 L420.94 71.15 L421.92 70.14 L422.89 69.14 L423.85 68.13 L424.81 67.12 L425.76 66.12 L426.70 65.11 L427.64 64.10 L428.57 63.10 L429.49 62.09 L430.41 61.08 L431.32 60.08 L432.23 59.07 L433.13 58.06 L434.03 57.06 L434.92 56.05 L435.80 55.04 L436.68 54.04 L437.55 53.03 L438.42 52.02 L439.28 51.02 L440.14 50.01 L440.99 49.01 L441.83 48.00 L442.67 46.99 L443.51 45.99 L444.34 44.98 L445.17 43.98 L445.99 42.97 L446.81 41.96 L447.62 40.96 L448.42 39.95 L449.23 38.95 L450.03 37.94 L450.82 36.94 L451.61 35.93 L452.39 34.92 L453.17 33.92 L453.95 32.91 L454.72 31.91 L455.49 30.90 L456.25 29.90 L457.01 28.89 L457.77 27.89 L458.52 26.88 L459.26 25.88 L460.01 24.87 L460.75 23.87 L461.48 22.86 L462.21 21.85 L462.94 20.85 L463.66 19.84 L464.38 18.84 L465.10 17.83 L465.81 16.83 L466.52 15.82 L467.23 14.82 L467.93 13.81 L468.63 12.81 L469.32 11.80 L470.01 10.80 L470.70 9.79 L471.39 8.79 L472.07 7.78 L472.75 6.78 L473.42 5.77 L474.09 4.77 L474.76 3.77 L475.43 2.76 L476.09 1.76 L476.75 0.75 L477.41 -0.25 " style="fill:none;stroke:#1F0322;stroke-width:1;" /></g></svg>