<?xml version="1.0" standalone="no"?><!DOCTYPE svg PUBLIC "-//W3C//DTD SVG 1.1//EN" "http://www.w3.org/Graphics/SVG/1.1/DTD/svg11.dtd"><svg xmlns="http://www.w3.org/2000/svg" viewBox="0 0 650 400" version="1.1"><clipPath id="box"><rect x="0" y="0" width="650" height="400" style="fill:none;stroke:none;" /></clipPath><g clip-path="url(#box)"><rect x="0.00" y="0.00" width="650.00" height="400.00" style="fill:#FFFFFF;stroke:none;" /><path d="M325.00 0.00 L325.00 400.00 " style="fill:none;stroke:#000000;stroke-width:1;" /><path d="M318.50 400.00 L331.50 400.00 M318.50 350.00 L331.50 350.00 M318.50 300.00 L331.50 300.00 M318.50 250.00 L331.50 250.00 M318.50 200.00 L331.50 200.00 M318.50 150.00 L331.50 150.00 M318.50 100.00 L331.50 100.00 M318.50 50.00 L331.50 50.00 M318.50 0.00 L331.50 0.00 " style="fill:none;stroke:#000000;stroke-width:1;" /><path d="M0.00 200.00 L650.00 200.00 " style="fill:none;stroke:#000000;stroke-width:1;" /><path d="M-25.00 193.50 L-25.00 206.50 M25.00 193.50 L25.00 206.50 M75.00 193.50 L75.00 206.50 M125.00 193.50 L125.00 206.50 M175.00 193.50 L175.00 206.50 M225.00 193.50 L225.00 206.50 M275.00 193.50 L275.00 206.50 M325.00 193.50 L325.00 206.50 M375.00 193.50 L375.00 206.50 M425.00 193.50 L425.00 206.50 M475.00 193.50 L475.00 206.50 M525.00 193.50 L525.00 206.50 M575.00 193.50 L575.00 206.50 M625.00 193.50 L625.00 206.50 " style="fill:none;stroke:#000000;stroke-width:1;" /><path d="M245.63 400.01 L245.63 400.00 L245.76 399.00 L245.89 398.00 L246.03 397.01 L246.16 396.01 L246.29 395.01 L246.43 394.02 L246.56 393.02 L246.70 392.02 L246.83 391.03 L246.97 390.03 L247.11 389.04 L247.24 388.04 L247.38 387.04 L247.52 386.05 L247.66 385.05 L247.80 384.05 L247.94 383.06 L248.08 382.06 L248.22 381.06 L248.36 380.07 L248.50 379.07 L248.64 378.08 L248.79 377.08 L248.93 376.08 L249.07 375.09 L249.22 374.09 L249.36 373.09 L249.51 372.10 L249.65 371.10 L249.80 370.11 L249.95 369.11 L250.09 368.11 L250.24 367.12 L250.39 366.12 L250.54 365.13 L250.69 364.13 L250.84 363.13 L250.99 362.14 L251.14 361.14 L251.30 360.15 L251.45 359.15 L251.60 358.15 L251.76 357.16 L251.91 356.16 L252.07 355.17 L252.23 354.17 L252.38 353.17 L252.54 352.18 L252.70 351.18 L252.86 350.19 L253.02 349.19 L253.18 348.20 L253.34 347.20 L253.50 346.21 L253.66 345.21 L253.83 344.21 L253.99 343.22 L254.16 342.22 L254.32 341.23 L254.49 340.23 L254.66 339.24 L254.82 338.24 L254.99 337.25 L255.16 336.25 L255.33 335.26 L255.50 334.26 L255.68 333.27 L255.85 332.27 L256.02 331.28 L256.20 330.28 L256.37 329.29 L256.55 328.29 L256.73 327.30 L256.90 326.30 L257.08 325.31 L257.26 324.31 L257.45 323.32 L257.63 322.32 L257.81 321.33 L257.99 320.33 L258.18 319.34 L258.37 318.35 L258.55 317.35 L258.74 316.36 L258.93 315.36 L259.12 314.37 L259.31 313.37 L259.50 312.38 L259.70 311.39 L259.89 310.39 L260.09 309.40 L260.29 308.40 L260.48 307.41 L260.68 306.42 L260.89 305.42 L261.09 304.43 L261.29 303.43 L261.50 302.44 L261.70 301.45 L261.91 300.45 L262.12 299.46 L262.33 298.47 L262.54 297.47 L262.75 296.48 L262.97 295.49 L263.18 294.49 L263.40 293.50 L263.62 292.51 L263.84 291.52 L264.06 290.52 L264.28 289.53 L264.51 288.54 L264.74 287.55 L264.96 286.55 L265.19 285.56 L265.43 284.57 L265.66 283.58 L265.90 282.58 L266.13 281.59 L266.37 280.60 L266.62 279.61 L266.86 278.62 L267.10 277.62 L267.35 276.63 L267.60 275.64 L267.85 274.65 L268.11 273.66 L268.36 272.67 L268.62 271.68 L268.88 270.69 L269.15 269.70 L269.41 268.71 L269.68 267.71 L269.95 266.72 L270.23 265.73 L270.50 264.74 L270.78 263.75 L271.06 262.76 L271.35 261.78 L271.64 260.79 L271.93 259.80 L272.22 258.81 L272.52 257.82 L272.82 256.83 L273.12 255.84 L273.43 254.85 L273.74 253.87 L274.06 252.88 L274.38 251.89 L274.70 250.90 L275.03 249.92 L275.36 248.93 L275.70 247.94 L276.04 246.96 L276.38 245.97 L276.73 244.98 L277.09 244.00 L277.45 243.01 L277.81 242.03 L278.18 241.04 L278.56 240.06 L278.94 239.08 L279.33 238.09 L279.73 237.11 L280.13 236.13 L280.54 235.14 L280.96 234.16 L281.39 233.18 L281.82 232.20 L282.26 231.22 L282.72 230.24 L283.18 229.26 L283.65 228.29 L284.13 227.31 L284.62 226.33 L285.13 225.36 L285.64 224.38 L286.18 223.41 L286.72 222.44 L287.28 221.46 L287.86 220.49 L288.45 219.52 L289.07 218.56 L289.70 217.59 L290.36 216.63 L291.04 215.67 L291.75 214.71 L292.49 213.75 L293.26 212.79 L294.06 211.84 L294.91 210.89 L295.81 209.95 L296.76 209.01 L297.77 208.08 L298.85 207.15 L300.02 206.24 L301.29 205.33 L302.70 204.44 L304.28 203.56 L306.08 202.71 L308.08 201.94 L310.08 201.33 L312.08 200.86 L314.08 200.52 L316.08 200.28 L318.08 200.13 L320.08 200.05 L322.08 200.01 L324.08 200.00 L326.08 200.00 L328.08 199.99 L330.08 199.95 L332.08 199.86 L334.08 199.70 L336.08 199.46 L338.08 199.11 L340.08 198.63 L342.08 198.01 L344.08 197.22 L346.08 196.26 L348.08 195.09 L349.78 193.91 L351.24 192.77 L352.52 191.66 L353.67 190.57 L354.73 189.49 L355.70 188.42 L356.62 187.36 L357.48 186.30 L358.29 185.25 L359.06 184.20 L359.79 183.15 L360.50 182.11 L361.17 181.07 L361.82 180.03 L362.45 179.00 L363.05 177.97 L363.63 176.93 L364.20 175.90 L364.75 174.87 L365.29 173.85 L365.81 172.82 L366.31 171.79 L366.81 170.77 L367.29 169.75 L367.76 168.72 L368.22 167.70 L368.67 166.68 L369.11 165.66 L369.55 164.64 L369.97 163.62 L370.39 162.60 L370.80 161.58 L371.20 160.57 L371.59 159.55 L371.98 158.53 L372.36 157.51 L372.73 156.50 L373.10 155.48 L373.46 154.47 L373.82 153.45 L374.17 152.44 L374.52 151.42 L374.86 150.41 L375.20 149.40 L375.53 148.38 L375.86 147.37 L376.19 146.36 L376.51 145.34 L376.82 144.33 L377.13 143.32 L377.44 142.31 L377.75 141.30 L378.05 140.28 L378.35 139.27 L378.64 138.26 L378.93 137.25 L379.22 136.24 L379.51 135.23 L379.79 134.22 L380.07 133.21 L380.34 132.20 L380.62 131.19 L380.89 130.18 L381.16 129.17 L381.42 128.16 L381.68 127.15 L381.94 126.14 L382.20 125.13 L382.46 124.12 L382.71 123.11 L382.96 122.10 L383.21 121.10 L383.46 120.09 L383.70 119.08 L383.95 118.07 L384.19 117.06 L384.43 116.05 L384.66 115.05 L384.90 114.04 L385.13 113.03 L385.36 112.02 L385.59 111.01 L385.82 110.01 L386.05 109.00 L386.27 107.99 L386.49 106.98 L386.71 105.98 L386.93 104.97 L387.15 103.96 L387.37 102.96 L387.58 101.95 L387.80 100.94 L388.01 99.94 L388.22 98.93 L388.43 97.92 L388.64 96.92 L388.84 95.91 L389.05 94.90 L389.25 93.90 L389.46 92.89 L389.66 91.88 L389.86 90.88 L390.05 89.87 L390.25 88.87 L390.45 87.86 L390.64 86.85 L390.84 85.85 L391.03 84.84 L391.22 83.84 L391.41 82.83 L391.60 81.82 L391.79 80.82 L391.98 79.81 L392.16 78.81 L392.35 77.80 L392.53 76.80 L392.72 75.79 L392.90 74.78 L393.08 73.78 L393.26 72.77 L393.44 71.77 L393.62 70.76 L393.80 69.76 L393.97 68.75 L394.15 67.75 L394.32 66.74 L394.50 65.74 L394.67 64.73 L394.84 63.73 L395.01 62.72 L395.18 61.72 L395.35 60.71 L395.52 59.71 L395.69 58.70 L395.86 57.70 L396.02 56.69 L396.19 55.69 L396.35 54.69 L396.52 53.68 L396.68 52.68 L396.84 51.67 L397.01 50.67 L397.17 49.66 L397.33 48.66 L397.49 47.65 L397.65 46.65 L397.80 45.64 L397.96 44.64 L398.12 43.64 L398.27 42.63 L398.43 41.63 L398.58 40.62 L398.74 39.62 L398.89 38.61 L399.05 37.61 L399.20 36.61 L399.35 35.60 L399.50 34.60 L399.65 33.59 L399.80 32.59 L399.95 31.59 L400.10 30.58 L400.25 29.58 L400.39 28.57 L400.54 27.57 L400.69 26.57 L400.83 25.56 L400.98 24.56 L401.12 23.55 L401.27 22.55 L401.41 21.55 L401.55 20.54 L401.70 19.54 L401.84 18.54 L401.98 17.53 L402.12 16.53 L402.26 15.53 L402.40 14.52 L402.54 13.52 L402.68 12.51 L402.82 11.51 L402.96 10.51 L403.09 9.50 L403.23 8.50 L403.37 7.50 L403.50 6.49 L403.64 5.49 L403.77 4.49 L403.91 3.48 L404.04 2.48 L404.17 1.48 L404.31 0.47 L404.44 -0.53 " style="fill:none;stroke:#EF476F;stroke-width:1;" /><path d="M234.05 400.01 L234.05 400.00 L234.16 399.00 L234.27 398.00 L234.38 397.01 L234.50 396.01 L234.61 395.01 L234.72 394.01 L234.84 393.02 L234.95 392.02 L235.07 391.02 L235.18 390.03 L235.30 389.03 L235.41 388.03 L235.53 387.03 L235.64 386.04 L235.76 385.04 L235.88 384.04 L235.99 383.05 L236.11 382.05 L236.23 381.05 L236.35 380.06 L236.46 379.06 L236.58 378.06 L236.70 377.06 L236.82 376.07 L236.94 375.07 L237.06 374.07 L237.18 373.08 L237.30 372.08 L237.43 371.08 L237.55 370.09 L237.67 369.09 L237.79 368.09 L237.91 367.10 L238.04 366.10 L238.16 365.10 L238.29 364.10 L238.41 363.11 L238.53 362.11 L238.66 361.11 L238.79 360.12 L238.91 359.12 L239.04 358.12 L239.16 357.13 L239.29 356.13 L239.42 355.13 L239.55 354.14 L239.68 353.14 L239.81 352.14 L239.94 351.15 L240.07 350.15 L240.20 349.15 L240.33 348.16 L240.46 347.16 L240.59 346.17 L240.72 345.17 L240.85 344.17 L240.99 343.18 L241.12 342.18 L241.26 341.18 L241.39 340.19 L241.52 339.19 L241.66 338.19 L241.80 337.20 L241.93 336.20 L242.07 335.21 L242.21 334.21 L242.35 333.21 L242.48 332.22 L242.62 331.22 L242.76 330.22 L242.90 329.23 L243.04 328.23 L243.19 327.24 L243.33 326.24 L243.47 325.24 L243.61 324.25 L243.76 323.25 L243.90 322.26 L244.05 321.26 L244.19 320.26 L244.34 319.27 L244.48 318.27 L244.63 317.28 L244.78 316.28 L244.93 315.28 L245.08 314.29 L245.23 313.29 L245.38 312.30 L245.53 311.30 L245.68 310.31 L245.83 309.31 L245.98 308.32 L246.14 307.32 L246.29 306.32 L246.45 305.33 L246.60 304.33 L246.76 303.34 L246.92 302.34 L247.08 301.35 L247.23 300.35 L247.39 299.36 L247.55 298.36 L247.71 297.37 L247.88 296.37 L248.04 295.38 L248.20 294.38 L248.37 293.39 L248.53 292.39 L248.70 291.40 L248.86 290.40 L249.03 289.41 L249.20 288.41 L249.37 287.42 L249.54 286.42 L249.71 285.43 L249.88 284.43 L250.05 283.44 L250.23 282.44 L250.40 281.45 L250.58 280.45 L250.76 279.46 L250.93 278.47 L251.11 277.47 L251.29 276.48 L251.47 275.48 L251.65 274.49 L251.84 273.49 L252.02 272.50 L252.20 271.51 L252.39 270.51 L252.58 269.52 L252.77 268.52 L252.96 267.53 L253.15 266.54 L253.34 265.54 L253.53 264.55 L253.73 263.56 L253.92 262.56 L254.12 261.57 L254.32 260.58 L254.52 259.58 L254.72 258.59 L254.92 257.60 L255.12 256.60 L255.33 255.61 L255.53 254.62 L255.74 253.62 L255.95 252.63 L256.16 251.64 L256.38 250.65 L256.59 249.65 L256.81 248.66 L257.02 247.67 L257.24 246.68 L257.46 245.68 L257.69 244.69 L257.91 243.70 L258.14 242.71 L258.36 241.72 L258.59 240.73 L258.83 239.73 L259.06 238.74 L259.30 237.75 L259.53 236.76 L259.77 235.77 L260.02 234.78 L260.26 233.79 L260.51 232.80 L260.76 231.81 L261.01 230.82 L261.26 229.83 L261.52 228.84 L261.78 227.85 L262.04 226.86 L262.31 225.87 L262.58 224.88 L262.85 223.89 L263.12 222.90 L263.40 221.91 L263.68 220.92 L263.96 219.94 L264.25 218.95 L264.53 217.96 L264.83 216.97 L265.13 215.98 L265.43 215.00 L265.73 214.01 L266.04 213.02 L266.35 212.04 L266.67 211.05 L266.99 210.07 L267.32 209.08 L267.65 208.10 L267.99 207.11 L268.33 206.13 L268.68 205.14 L269.03 204.16 L269.39 203.18 L269.76 202.20 L270.13 201.21 L270.51 200.23 L270.89 199.25 L271.29 198.27 L271.69 197.29 L272.10 196.31 L272.52 195.34 L272.95 194.36 L273.39 193.38 L273.84 192.41 L274.30 191.43 L274.77 190.46 L275.26 189.49 L275.76 188.52 L276.27 187.55 L276.81 186.58 L277.36 185.62 L277.93 184.65 L278.52 183.69 L279.13 182.73 L279.77 181.78 L280.44 180.82 L281.15 179.88 L281.89 178.93 L282.68 178.00 L283.52 177.06 L284.43 176.14 L285.41 175.23 L286.48 174.34 L287.69 173.47 L289.07 172.62 L290.71 171.84 L292.71 171.18 L294.71 170.83 L296.71 170.77 L298.71 170.98 L300.71 171.44 L302.71 172.14 L304.71 173.05 L306.71 174.16 L308.52 175.31 L310.09 176.41 L311.51 177.49 L312.83 178.55 L314.07 179.60 L315.26 180.63 L316.41 181.67 L317.52 182.69 L318.61 183.71 L319.67 184.73 L320.71 185.74 L321.74 186.75 L322.76 187.76 L323.77 188.77 L324.77 189.77 L325.77 190.77 L326.77 191.77 L327.77 192.77 L328.78 193.76 L329.79 194.75 L330.82 195.74 L331.85 196.72 L332.90 197.71 L333.97 198.68 L335.07 199.66 L336.19 200.63 L337.35 201.59 L338.54 202.55 L339.80 203.50 L341.11 204.44 L342.52 205.37 L344.03 206.27 L345.70 207.15 L347.60 207.98 L349.60 208.65 L351.60 209.07 L353.60 209.24 L355.60 209.14 L357.60 208.74 L359.60 208.03 L361.60 206.99 L363.52 205.66 L364.96 204.44 L366.14 203.29 L367.17 202.18 L368.09 201.08 L368.94 200.01 L369.72 198.94 L370.46 197.88 L371.16 196.83 L371.81 195.78 L372.44 194.73 L373.04 193.69 L373.62 192.65 L374.17 191.61 L374.71 190.58 L375.23 189.55 L375.73 188.52 L376.21 187.49 L376.68 186.46 L377.14 185.43 L377.59 184.41 L378.03 183.38 L378.45 182.36 L378.87 181.34 L379.28 180.31 L379.68 179.29 L380.07 178.27 L380.45 177.25 L380.83 176.23 L381.19 175.22 L381.56 174.20 L381.91 173.18 L382.26 172.16 L382.60 171.15 L382.94 170.13 L383.27 169.12 L383.60 168.10 L383.92 167.09 L384.24 166.07 L384.56 165.06 L384.87 164.04 L385.17 163.03 L385.47 162.02 L385.77 161.01 L386.06 159.99 L386.35 158.98 L386.64 157.97 L386.92 156.96 L387.20 155.94 L387.48 154.93 L387.75 153.92 L388.02 152.91 L388.29 151.90 L388.55 150.89 L388.81 149.88 L389.07 148.87 L389.33 147.86 L389.58 146.85 L389.83 145.84 L390.08 144.83 L390.32 143.82 L390.57 142.81 L390.81 141.80 L391.05 140.79 L391.29 139.78 L391.52 138.77 L391.75 137.77 L391.99 136.76 L392.21 135.75 L392.44 134.74 L392.67 133.73 L392.89 132.72 L393.11 131.72 L393.33 130.71 L393.55 129.70 L393.77 128.69 L393.98 127.68 L394.19 126.68 L394.41 125.67 L394.62 124.66 L394.82 123.65 L395.03 122.65 L395.24 121.64 L395.44 120.63 L395.64 119.63 L395.84 118.62 L396.04 117.61 L396.24 116.61 L396.44 115.60 L396.64 114.59 L396.83 113.59 L397.02 112.58 L397.22 111.57 L397.41 110.57 L397.60 109.56 L397.78 108.55 L397.97 107.55 L398.16 106.54 L398.34 105.54 L398.53 104.53 L398.71 103.52 L398.89 102.52 L399.07 101.51 L399.25 100.51 L399.43 99.50 L399.61 98.50 L399.78 97.49 L399.96 96.48 L400.13 95.48 L400.31 94.47 L400.48 93.47 L400.65 92.46 L400.82 91.46 L400.99 90.45 L401.16 89.45 L401.33 88.44 L401.50 87.44 L401.66 86.43 L401.83 85.43 L401.99 84.42 L402.16 83.42 L402.32 82.41 L402.48 81.41 L402.65 80.40 L402.81 79.40 L402.97 78.39 L403.13 77.39 L403.28 76.38 L403.44 75.38 L403.60 74.37 L403.75 73.37 L403.91 72.36 L404.07 71.36 L404.22 70.35 L404.37 69.35 L404.53 68.35 L404.68 67.34 L404.83 66.34 L404.98 65.33 L405.13 64.33 L405.28 63.32 L405.43 62.32 L405.58 61.32 L405.72 60.31 L405.87 59.31 L406.02 58.30 L406.16 57.30 L406.31 56.29 L406.45 55.29 L406.60 54.29 L406.74 53.28 L406.88 52.28 L407.03 51.27 L407.17 50.27 L407.31 49.27 L407.45 48.26 L407.59 47.26 L407.73 46.26 L407.87 45.25 L408.01 44.25 L408.14 43.24 L408.28 42.24 L408.42 41.24 L408.55 40.23 L408.69 39.23 L408.82 38.23 L408.96 37.22 L409.09 36.22 L409.23 35.21 L409.36 34.21 L409.49 33.21 L409.63 32.20 L409.76 31.20 L409.89 30.20 L410.02 29.19 L410.15 28.19 L410.28 27.19 L410.41 26.18 L410.54 25.18 L410.67 24.18 L410.80 23.17 L410.92 22.17 L411.05 21.17 L411.18 20.16 L411.31 19.16 L411.43 18.16 L411.56 17.15 L411.68 16.15 L411.81 15.15 L411.93 14.14 L412.06 13.14 L412.18 12.14 L412.30 11.13 L412.43 10.13 L412.55 9.13 L412.67 8.12 L412.79 7.12 L412.91 6.12 L413.04 5.11 L413.16 4.11 L413.28 3.11 L413.40 2.10 L413.52 1.10 L413.64 0.10 L413.75 -0.90 " style="fill:none;stroke:#118AB2;stroke-width:1;" /></g></svg>